<?xml version="1.0" encoding="UTF-8" standalone="no"?>
<!DOCTYPE svg PUBLIC "-//W3C//DTD SVG 1.1//EN" "http://www.w3.org/Graphics/SVG/1.1/DTD/svg11.dtd">
<svg width="100%" height="100%" viewBox="0 0 1533 386" version="1.1" xmlns="http://www.w3.org/2000/svg" xmlns:xlink="http://www.w3.org/1999/xlink" xml:space="preserve" xmlns:serif="http://www.serif.com/" style="fill-rule:evenodd;clip-rule:evenodd;stroke-linejoin:round;stroke-miterlimit:2;">
    <g transform="matrix(1,0,0,1,-440.273,-997.466)">
        <path d="M1454.07,1229.39C1455.26,1237.6 1376,1248.3 1376,1256.85C1376,1288.66 1345.03,1301.52 1341.11,1319.94C1337.7,1335.93 1363.12,1358.36 1342.04,1373.06C1327.65,1383.09 1286.3,1336.7 1259.94,1338.02C1234.39,1339.3 1230.74,1361.06 1212.46,1361.06C1203.97,1361.06 1185.76,1333.55 1161.98,1332.89C1133.96,1332.13 1093.14,1385.4 1084.09,1382.52C1047.38,1370.83 1083.8,1347.03 1076.84,1326.86C1070.4,1308.22 1019.25,1294.35 1019.25,1256.85C1019.25,1248.3 924.021,1242.17 925.209,1233.95C925.209,1233.95 840.505,1211.9 745.769,1238.19C647.07,1265.58 440.273,1352.62 440.273,1352.62C440.273,1352.62 469.465,1155.98 703.858,1055.95C741.168,1040.02 774.224,1071.92 808.266,1071.92C842.307,1071.92 868.305,1052.21 908.108,1055.95C947.912,1059.68 1043.37,1106.22 1081.32,1105.73C1119.27,1105.25 1095.06,1070.82 1135.81,1053.05L1148.16,997.466L1158.7,1044.92C1173.63,1040.77 1189.36,1038.55 1205.61,1038.55C1220.27,1038.55 1234.51,1040.35 1248.13,1043.76L1258.41,997.466L1270.29,1050.91C1309.64,1066.59 1285.04,1103.01 1320.15,1103.85C1355.25,1104.69 1445.95,1059.14 1480.92,1055.95C1515.89,1052.75 1534.17,1077.85 1564.22,1077.85C1594.27,1077.85 1626.42,1047.47 1661.21,1055.95C1835.03,1098.32 1972.72,1316.11 1972.72,1316.11C1972.72,1316.11 1747.58,1238.64 1653.53,1217.72C1567.22,1198.53 1454.07,1229.39 1454.07,1229.39Z" style="fill:rgb(235,235,235);"/>
    </g>
</svg>
