<?xml version="1.0" encoding="UTF-8" standalone="no"?>
<!DOCTYPE svg PUBLIC "-//W3C//DTD SVG 1.1//EN" "http://www.w3.org/Graphics/SVG/1.1/DTD/svg11.dtd">
<svg width="100%" height="100%" viewBox="0 0 1381 1381" version="1.1" xmlns="http://www.w3.org/2000/svg" xmlns:xlink="http://www.w3.org/1999/xlink" xml:space="preserve" xmlns:serif="http://www.serif.com/" style="fill-rule:evenodd;clip-rule:evenodd;stroke-linejoin:round;stroke-miterlimit:2;">
    <g transform="matrix(1,0,0,1,-1753.94,-3384.83)">
        <path d="M3016.59,4460.53C2892.51,4644.31 2682.34,4765.23 2444.14,4765.23C2063.21,4765.23 1753.94,4455.96 1753.94,4075.03C1753.94,3694.1 2063.21,3384.83 2444.14,3384.83C2531.56,3384.83 2615.21,3401.12 2692.18,3430.81C2679.76,3430.41 2667.1,3428.49 2653.09,3435.76C2630.86,3447.32 2583.25,3501.89 2559.84,3510.82C2536.42,3519.74 2542.84,3489.05 2512.61,3489.31L2490.34,3457.22L2496.04,3490.57C2486.13,3492 2476.24,3494.65 2466.55,3498.61C2455.82,3503 2446.03,3508.71 2437.29,3515.49L2417.51,3486.99L2424.36,3527.04C2402.25,3549.78 2427.53,3565.99 2402.6,3576.55C2377.66,3587.12 2302.05,3582.16 2274.75,3590.44C2247.45,3598.72 2235.6,3618.76 2213.12,3627.95C2190.63,3637.14 2160.19,3625 2139.84,3645.59C2012.04,3774.95 2045.85,3912.72 2045.85,3912.72C2045.85,3912.72 2158.94,3799.39 2216.74,3754.64C2272.21,3711.7 2334.11,3703.39 2334.11,3703.39C2335.55,3709.14 2400.1,3687.47 2402.41,3693.12C2412.54,3717.89 2450.07,3713.24 2459.35,3723.82C2469.39,3735.25 2451.76,3760.81 2479.17,3758.62C2485.93,3758.08 2498.5,3711.87 2517.22,3704.81C2533.1,3698.82 2552.55,3712.07 2558.16,3709.78C2570.23,3704.85 2566.77,3689.49 2583.3,3681.74C2600.36,3673.75 2640.2,3693.23 2646.99,3682.72C2656.94,3667.32 2634.1,3659.37 2632.03,3647.89C2629.65,3634.66 2646.63,3617.8 2638.04,3596.8C2635.73,3591.14 2685.19,3562.68 2682.19,3557.57C2682.19,3557.57 2748.59,3506.64 2810.78,3496.01C2813.06,3495.62 2815.45,3495.24 2817.95,3494.85C3008.26,3617.79 3134.34,3831.8 3134.34,4075.03C3134.34,4181.65 3110.11,4282.66 3066.88,4372.81C3039.51,4335.73 3005.95,4301.39 2966.11,4279.58C2940.24,4265.42 2908.18,4282.74 2884.28,4276.33C2860.37,4269.93 2851.18,4246.07 2822.68,4241.15C2794.17,4236.23 2712.3,4253.14 2684.55,4244.98C2656.8,4236.83 2684.13,4213.11 2656.17,4192.24L2658.12,4147.19L2640.07,4181.82C2629.96,4176.21 2619.01,4171.74 2607.35,4168.61C2594.42,4165.15 2581.43,4163.56 2568.67,4163.68L2570.4,4123.68L2548.72,4165.27C2512.52,4170.72 2524.43,4203.28 2494.14,4195.57C2463.84,4187.87 2397.82,4130.49 2366.95,4119.04C2336.08,4107.58 2311.19,4117.72 2284.11,4110.46C2257.02,4103.2 2237.52,4070.78 2204.45,4075.49C1996.64,4105.11 1931.49,4255.34 1931.49,4255.34C1931.49,4255.34 2114.58,4230.17 2198.94,4229.42C2279.91,4228.7 2342.6,4264.3 2342.6,4264.3C2339.91,4270.59 2414.37,4295.77 2412.55,4302.57C2404.55,4332.4 2442.29,4354.34 2443.43,4370.55C2444.68,4388.07 2410.62,4399.25 2437.34,4416.37C2443.93,4420.6 2487.76,4386.91 2509.89,4393.5C2528.67,4399.08 2537.29,4424.85 2544.05,4426.66C2558.59,4430.56 2566.13,4414.03 2586.73,4418.45C2607.98,4423.03 2631,4468.76 2644.58,4463.84C2664.48,4456.64 2649.04,4433.38 2655.16,4421.38C2662.21,4407.56 2689.59,4403.93 2696.37,4378.62C2698.19,4371.82 2763.53,4380.2 2764.34,4373.41C2764.34,4373.41 2860.94,4372.98 2925.51,4406.66C2948.83,4418.82 2982.28,4438.99 3016.59,4460.53Z"/>
    </g>
</svg>
