<?xml version="1.0" encoding="UTF-8" standalone="no"?>
<!DOCTYPE svg PUBLIC "-//W3C//DTD SVG 1.1//EN" "http://www.w3.org/Graphics/SVG/1.1/DTD/svg11.dtd">
<svg width="100%" height="100%" viewBox="0 0 1397 1298" version="1.1" xmlns="http://www.w3.org/2000/svg" xmlns:xlink="http://www.w3.org/1999/xlink" xml:space="preserve" xmlns:serif="http://www.serif.com/" style="fill-rule:evenodd;clip-rule:evenodd;stroke-linejoin:round;stroke-miterlimit:2;">
    <g transform="matrix(1,0,0,1,-184.058,-1631.66)">
        <path d="M661.98,1667.12C731.177,1644.11 805.179,1631.65 882.067,1631.65C1267.31,1631.65 1580.08,1944.42 1580.08,2329.66C1580.08,2464.73 1541.63,2590.89 1475.12,2697.75C1467.13,2682.81 1460.85,2665.3 1458.08,2642.55L1429.01,2645.07L1427.99,2598.49L1444.34,2575.09L1444.34,2545.89L1429.29,2536.14L1429.29,2519.05L1458.08,2517.1L1360.13,2293.92L1262.18,2517.1L1289.01,2521L1288.36,2538.09L1275.92,2545.89L1275.92,2575.09L1292.26,2590.05L1291.16,2644.28L1296.15,2656.03L1295.87,2656.63L1202.24,2664.75L1125.99,2661.1L1132.27,2638.49L1129.59,2620.05L1141.31,2605.93L1162.19,2530.77L1190.87,2516.93L1202.93,2476.7L1189.02,2460.82L1195.18,2437.01L1233.75,2442.72L1191,2094.86L963.92,2361.81L1002.76,2376.39L995.705,2399.93L970.958,2407.15L958.898,2447.37L971.745,2486.36L939.916,2584.67L947.584,2600.56L930.407,2614.04L918.935,2649.47L925.696,2651.5L854.235,2648.08L853.805,2626.94L877.306,2605.44L877.306,2563.45L859.413,2552.23L858.479,2527.65L897.067,2522.04L756.218,2201.12L615.368,2522.04L656.761,2524.84L656.761,2549.43L635.129,2563.45L635.129,2605.44L658.63,2639.09L656.377,2742.4L668.285,2755.42L663.733,2761.87L598.837,2761.87L580.41,2707.67L561.984,2761.87L468.345,2761.87L478.953,2866.02L537.721,2898.61L524.609,2929.2C320.713,2807.29 184.058,2584.31 184.058,2329.66C184.058,2188.72 225.922,2057.48 297.898,1947.69C310.103,2084.01 446.886,2191.61 613.591,2191.61C630.243,2191.61 646.595,2190.53 662.565,2188.46C576.84,2141.24 520.251,2060.22 520.251,1968.26C520.251,1836.56 636.357,1727.26 787.857,1707.63C750.645,1687.13 707.937,1673 661.98,1667.12Z"/>
    </g>
</svg>
