<?xml version="1.0" encoding="UTF-8" standalone="no"?>
<!DOCTYPE svg PUBLIC "-//W3C//DTD SVG 1.1//EN" "http://www.w3.org/Graphics/SVG/1.1/DTD/svg11.dtd">
<svg width="100%" height="100%" viewBox="0 0 1356 1247" version="1.1" xmlns="http://www.w3.org/2000/svg" xmlns:xlink="http://www.w3.org/1999/xlink" xml:space="preserve" xmlns:serif="http://www.serif.com/" style="fill-rule:evenodd;clip-rule:evenodd;stroke-linejoin:round;stroke-miterlimit:2;">
    <g transform="matrix(1,0,0,1,-204.562,-135.506)">
        <g transform="matrix(1,0,0,1,-195.4,-44.1225)">
            <path d="M709.742,1426.12C703.622,1401.48 658.684,1298.3 667.149,1249.35C672.913,1216.03 626.197,1294.63 625.237,1276.86C620.011,1180.14 563.099,1144.62 563.099,1144.62C563.099,1144.62 586.222,1254.07 569.262,1304.99C569.262,1304.99 399.962,1028.76 399.962,857.134C399.962,483.208 703.542,179.628 1077.47,179.628C1451.39,179.628 1754.97,483.208 1754.97,857.134C1754.97,1037.39 1684.42,1201.3 1569.46,1322.73C1559.37,1333.39 1543.87,1232.59 1543.87,1232.59C1543.87,1232.59 1493.26,1266.35 1519.29,1370.6C1523.7,1388.29 1496.95,1295.89 1476.44,1304.83C1462.25,1311.01 1455.81,1419.24 1445.19,1426.12L1445.19,899.689C1445.19,860.704 1413.54,829.053 1374.56,829.053L1297.3,829.053C1297.3,716.45 1205.88,625.031 1093.28,625.031C980.679,625.031 889.26,716.45 889.26,829.053L780.378,829.053C741.393,829.053 709.742,860.704 709.742,899.689L709.742,1426.12Z"/>
        </g>
        <g transform="matrix(0.500359,0,0,0.500746,293.187,-10.7341)">
            <g transform="matrix(462.958,0,0,462.958,814.691,2033.29)">
                <path d="M0.073,0L0.073,-0.716L0.377,-0.716C0.454,-0.716 0.51,-0.709 0.544,-0.697C0.579,-0.684 0.607,-0.661 0.627,-0.628C0.648,-0.595 0.659,-0.557 0.659,-0.515C0.659,-0.461 0.643,-0.417 0.611,-0.382C0.58,-0.347 0.533,-0.325 0.47,-0.316C0.501,-0.298 0.527,-0.278 0.547,-0.256C0.567,-0.234 0.595,-0.195 0.629,-0.14L0.717,0L0.544,0L0.439,-0.156C0.402,-0.211 0.377,-0.247 0.363,-0.261C0.35,-0.275 0.335,-0.285 0.32,-0.291C0.305,-0.296 0.28,-0.299 0.247,-0.299L0.218,-0.299L0.218,0L0.073,0ZM0.218,-0.413L0.325,-0.413C0.394,-0.413 0.437,-0.416 0.455,-0.422C0.472,-0.428 0.485,-0.438 0.495,-0.452C0.505,-0.466 0.51,-0.484 0.51,-0.506C0.51,-0.53 0.503,-0.549 0.49,-0.564C0.478,-0.579 0.459,-0.588 0.436,-0.592C0.424,-0.594 0.389,-0.595 0.331,-0.595L0.218,-0.595L0.218,-0.413Z" style="fill-rule:nonzero;"/>
            </g>
            <g transform="matrix(462.958,0,0,462.958,1149.02,2033.29)">
                <rect x="0.068" y="-0.716" width="0.145" height="0.716" style="fill-rule:nonzero;"/>
            </g>
            <g transform="matrix(462.958,0,0,462.958,1277.65,2033.29)">
                <path d="M0.073,0L0.073,-0.716L0.305,-0.716C0.393,-0.716 0.45,-0.712 0.477,-0.705C0.518,-0.694 0.552,-0.671 0.58,-0.635C0.607,-0.599 0.621,-0.553 0.621,-0.496C0.621,-0.452 0.613,-0.415 0.597,-0.385C0.581,-0.355 0.561,-0.331 0.536,-0.314C0.512,-0.297 0.487,-0.286 0.461,-0.28C0.427,-0.273 0.377,-0.27 0.312,-0.27L0.217,-0.27L0.217,0L0.073,0ZM0.217,-0.595L0.217,-0.392L0.296,-0.392C0.353,-0.392 0.391,-0.395 0.411,-0.403C0.43,-0.41 0.445,-0.422 0.456,-0.438C0.467,-0.454 0.472,-0.472 0.472,-0.494C0.472,-0.52 0.465,-0.541 0.449,-0.558C0.434,-0.575 0.415,-0.586 0.391,-0.59C0.374,-0.593 0.339,-0.595 0.287,-0.595L0.217,-0.595Z" style="fill-rule:nonzero;"/>
            </g>
        </g>
    </g>
</svg>
