<?xml version="1.0" encoding="UTF-8" standalone="no"?>
<!DOCTYPE svg PUBLIC "-//W3C//DTD SVG 1.1//EN" "http://www.w3.org/Graphics/SVG/1.1/DTD/svg11.dtd">
<svg width="100%" height="100%" viewBox="0 0 349 114" version="1.1" xmlns="http://www.w3.org/2000/svg" xmlns:xlink="http://www.w3.org/1999/xlink" xml:space="preserve" xmlns:serif="http://www.serif.com/" style="fill-rule:evenodd;clip-rule:evenodd;stroke-linejoin:round;stroke-miterlimit:2;">
    <g transform="matrix(1,0,0,1,-144.642,-1764.74)">
        <path d="M289.556,1786.51C303.364,1776.88 321.531,1776.21 336.01,1784.8C341.043,1787.51 347.256,1783.69 355.162,1769.75C369.769,1744 372.29,1825 380.159,1843.32C391.157,1868.91 493.184,1878.23 493.184,1878.23L144.642,1878.23C144.642,1878.23 245.201,1864.69 249.784,1849.4C256.709,1826.29 269.112,1751.29 277.559,1774.41C281.787,1785.98 285.804,1789.15 289.556,1786.51ZM330.379,1831.47C326.468,1830.71 322.131,1830.29 317.566,1830.29C314.481,1830.29 311.499,1830.48 308.681,1830.84L302.024,1846.79L296.592,1833.78C290.252,1836.25 286.264,1839.84 286.264,1843.82C286.264,1851.29 300.29,1857.36 317.566,1857.36C334.842,1857.36 348.868,1851.29 348.868,1843.82C348.868,1840.53 346.147,1837.51 341.625,1835.16L336.774,1846.79L330.379,1831.47Z" style="fill:rgb(235,235,235);"/>
    </g>
</svg>
